<mxfile host="app.diagrams.net" modified="2024-06-10T22:51:55.965Z" agent="Mozilla/5.0 (Windows NT 10.0; Win64; x64) AppleWebKit/537.36 (KHTML, like Gecko) Chrome/125.0.0.0 Safari/537.36" etag="ctUl6NHgVQiqmoaw5oj3" version="24.4.6" type="device">
  <diagram name="Page-1" id="7QVMVbwfa_VzJiG71j_y">
    <mxGraphModel dx="1050" dy="565" grid="1" gridSize="10" guides="0" tooltips="1" connect="1" arrows="1" fold="1" page="1" pageScale="1" pageWidth="850" pageHeight="1100" math="0" shadow="0">
      <root>
        <mxCell id="0" />
        <mxCell id="1" parent="0" />
        <mxCell id="0e-Kru8gK930P0Enb72m-1" value="User" style="whiteSpace=wrap;html=1;aspect=fixed;" vertex="1" parent="1">
          <mxGeometry x="360" y="20" width="80" height="80" as="geometry" />
        </mxCell>
        <mxCell id="0e-Kru8gK930P0Enb72m-36" style="edgeStyle=orthogonalEdgeStyle;rounded=0;orthogonalLoop=1;jettySize=auto;html=1;" edge="1" parent="1" source="0e-Kru8gK930P0Enb72m-3" target="0e-Kru8gK930P0Enb72m-2">
          <mxGeometry relative="1" as="geometry" />
        </mxCell>
        <mxCell id="0e-Kru8gK930P0Enb72m-49" style="edgeStyle=orthogonalEdgeStyle;rounded=0;orthogonalLoop=1;jettySize=auto;html=1;" edge="1" parent="1" source="0e-Kru8gK930P0Enb72m-3" target="0e-Kru8gK930P0Enb72m-4">
          <mxGeometry relative="1" as="geometry">
            <Array as="points">
              <mxPoint x="470" y="220" />
              <mxPoint x="470" y="220" />
            </Array>
          </mxGeometry>
        </mxCell>
        <mxCell id="0e-Kru8gK930P0Enb72m-3" value="Load Balancer" style="rounded=0;whiteSpace=wrap;html=1;" vertex="1" parent="1">
          <mxGeometry x="270" y="150" width="230" height="60" as="geometry" />
        </mxCell>
        <mxCell id="0e-Kru8gK930P0Enb72m-39" style="edgeStyle=orthogonalEdgeStyle;rounded=0;orthogonalLoop=1;jettySize=auto;html=1;entryX=0.5;entryY=1;entryDx=0;entryDy=0;" edge="1" parent="1" source="0e-Kru8gK930P0Enb72m-4" target="0e-Kru8gK930P0Enb72m-19">
          <mxGeometry relative="1" as="geometry" />
        </mxCell>
        <mxCell id="0e-Kru8gK930P0Enb72m-41" style="edgeStyle=orthogonalEdgeStyle;rounded=0;orthogonalLoop=1;jettySize=auto;html=1;entryX=0.25;entryY=1;entryDx=0;entryDy=0;" edge="1" parent="1" source="0e-Kru8gK930P0Enb72m-4" target="0e-Kru8gK930P0Enb72m-17">
          <mxGeometry relative="1" as="geometry" />
        </mxCell>
        <mxCell id="0e-Kru8gK930P0Enb72m-4" value="Server 2" style="whiteSpace=wrap;html=1;aspect=fixed;" vertex="1" parent="1">
          <mxGeometry x="430" y="270" width="80" height="80" as="geometry" />
        </mxCell>
        <mxCell id="0e-Kru8gK930P0Enb72m-12" value="DataBase" style="shape=cylinder3;whiteSpace=wrap;html=1;boundedLbl=1;backgroundOutline=1;size=15;" vertex="1" parent="1">
          <mxGeometry x="340" y="480" width="60" height="80" as="geometry" />
        </mxCell>
        <mxCell id="0e-Kru8gK930P0Enb72m-17" value="Zookeepeer" style="whiteSpace=wrap;html=1;aspect=fixed;" vertex="1" parent="1">
          <mxGeometry x="80" y="190" width="80" height="80" as="geometry" />
        </mxCell>
        <mxCell id="0e-Kru8gK930P0Enb72m-19" value="Cache" style="whiteSpace=wrap;html=1;aspect=fixed;" vertex="1" parent="1">
          <mxGeometry x="610" y="180" width="80" height="80" as="geometry" />
        </mxCell>
        <mxCell id="0e-Kru8gK930P0Enb72m-38" style="edgeStyle=orthogonalEdgeStyle;rounded=0;orthogonalLoop=1;jettySize=auto;html=1;" edge="1" parent="1" source="0e-Kru8gK930P0Enb72m-2" target="0e-Kru8gK930P0Enb72m-17">
          <mxGeometry relative="1" as="geometry" />
        </mxCell>
        <mxCell id="0e-Kru8gK930P0Enb72m-40" style="edgeStyle=orthogonalEdgeStyle;rounded=0;orthogonalLoop=1;jettySize=auto;html=1;entryX=0.25;entryY=1;entryDx=0;entryDy=0;" edge="1" parent="1" source="0e-Kru8gK930P0Enb72m-2" target="0e-Kru8gK930P0Enb72m-19">
          <mxGeometry relative="1" as="geometry" />
        </mxCell>
        <mxCell id="0e-Kru8gK930P0Enb72m-43" style="edgeStyle=orthogonalEdgeStyle;rounded=0;orthogonalLoop=1;jettySize=auto;html=1;" edge="1" parent="1" source="0e-Kru8gK930P0Enb72m-2" target="0e-Kru8gK930P0Enb72m-12">
          <mxGeometry relative="1" as="geometry" />
        </mxCell>
        <mxCell id="0e-Kru8gK930P0Enb72m-2" value="Server 1" style="whiteSpace=wrap;html=1;aspect=fixed;" vertex="1" parent="1">
          <mxGeometry x="260" y="340" width="80" height="80" as="geometry" />
        </mxCell>
        <mxCell id="0e-Kru8gK930P0Enb72m-35" style="edgeStyle=orthogonalEdgeStyle;rounded=0;orthogonalLoop=1;jettySize=auto;html=1;entryX=0.565;entryY=0;entryDx=0;entryDy=0;entryPerimeter=0;" edge="1" parent="1" source="0e-Kru8gK930P0Enb72m-1" target="0e-Kru8gK930P0Enb72m-3">
          <mxGeometry relative="1" as="geometry" />
        </mxCell>
        <mxCell id="0e-Kru8gK930P0Enb72m-51" style="edgeStyle=orthogonalEdgeStyle;rounded=0;orthogonalLoop=1;jettySize=auto;html=1;exitX=0.75;exitY=1;exitDx=0;exitDy=0;entryX=0.855;entryY=0;entryDx=0;entryDy=4.35;entryPerimeter=0;" edge="1" parent="1" source="0e-Kru8gK930P0Enb72m-4" target="0e-Kru8gK930P0Enb72m-12">
          <mxGeometry relative="1" as="geometry" />
        </mxCell>
      </root>
    </mxGraphModel>
  </diagram>
</mxfile>
